HIERARCHY
ROOT root
{
	OFFSET	0	13.1	24.9
	CHANNELS 6  Xposition Yposition Zposition Xrotation Yrotation Zrotation
	JOINT spine_1
	{
		OFFSET	0	9.99999	0
		CHANNELS 3  Xrotation Yrotation Zrotation
		JOINT spine_2
		{
			OFFSET	0	112	-10
			CHANNELS 3  Xrotation Yrotation Zrotation
			JOINT spine_3
			{
				OFFSET	0	206.5	19.3
				CHANNELS 3  Xrotation Yrotation Zrotation
				JOINT spine_4
				{
					OFFSET	0	110.4	14.6
					CHANNELS 3  Xrotation Yrotation Zrotation
					JOINT neck_1
					{
						OFFSET	0	71.8	-50.3
						CHANNELS 3  Xrotation Yrotation Zrotation
						JOINT neck_2
						{
							OFFSET	0	86.2	-25.8
							CHANNELS 3  Xrotation Yrotation Zrotation
							JOINT head_ee
							{
								OFFSET	0	179.8	-8.7
								CHANNELS 3  Xrotation Yrotation Zrotation
								End Site
								{
									OFFSET	1	0	0
								}
							}
						}
					}
					JOINT left_clavicle
					{
						OFFSET	-43.2	22.4	-70.8
						CHANNELS 3  Xrotation Yrotation Zrotation
						JOINT left_shoulder
						{
							OFFSET	-93.9	-5.79999	48.7
							CHANNELS 3  Xrotation Yrotation Zrotation
							JOINT left_elbow
							{
								OFFSET	-291.4	-30.8	15.2
								CHANNELS 3  Xrotation Yrotation Zrotation
								JOINT left_lowarm_twist
								{
									OFFSET	-110.7	-3.89999	13.6
									CHANNELS 3  Xrotation Yrotation Zrotation
									JOINT left_hand
									{
										OFFSET	-110.7	-3.89999	13.6
										CHANNELS 3  Xrotation Yrotation Zrotation
										JOINT left_ee
										{
											OFFSET	-80.8	-5.10001	12.1
											CHANNELS 3  Xrotation Yrotation Zrotation
											End Site
											{
												OFFSET	1	0	0
											}
										}
									}
								}
							}
						}
					}
					JOINT right_clavicle
					{
						OFFSET	43.2	22.4	-70.8
						CHANNELS 3  Xrotation Yrotation Zrotation
						JOINT right_shoulder
						{
							OFFSET	93.9	-5.79999	48.7
							CHANNELS 3  Xrotation Yrotation Zrotation
							JOINT right_elbow
							{
								OFFSET	291.4	-30.8	15.2
								CHANNELS 3  Xrotation Yrotation Zrotation
								JOINT right_lowarm_twist
								{
									OFFSET	110.7	-3.89999	13.6
									CHANNELS 3  Xrotation Yrotation Zrotation
									JOINT right_hand
									{
										OFFSET	110.7	-3.89999	13.6
										CHANNELS 3  Xrotation Yrotation Zrotation
										JOINT right_ee
										{
											OFFSET	80.8	-5.10001	12.1
											CHANNELS 3  Xrotation Yrotation Zrotation
											End Site
											{
												OFFSET	1	0	0
											}
										}
									}
								}
							}
						}
					}
				}
			}
		}
	}
	JOINT left_hip
	{
		OFFSET	-82.8	-127.5	0.300001
		CHANNELS 3  Xrotation Yrotation Zrotation
		JOINT left_knee
		{
			OFFSET	-28.2	-396.7	2.2
			CHANNELS 3  Xrotation Yrotation Zrotation
			JOINT left_ankle
			{
				OFFSET	-11.7	-411.3	35.4
				CHANNELS 3  Xrotation Yrotation Zrotation
				JOINT left_toes
				{
					OFFSET	0	-60	-88.6
					CHANNELS 3  Xrotation Yrotation Zrotation
					JOINT left_foot_ee
					{
						OFFSET	-22.5	-16.5	-42.2
						CHANNELS 3  Xrotation Yrotation Zrotation
						End Site
						{
							OFFSET	1	0	0
						}
					}
				}
			}
		}
	}
	JOINT right_hip
	{
		OFFSET	82.8	-127.5	0.300001
		CHANNELS 3  Xrotation Yrotation Zrotation
		JOINT right_knee
		{
			OFFSET	28.2	-396.7	2.2
			CHANNELS 3  Xrotation Yrotation Zrotation
			JOINT right_ankle
			{
				OFFSET	11.7	-411.3	35.4
				CHANNELS 3  Xrotation Yrotation Zrotation
				JOINT right_toes
				{
					OFFSET	0	-60	-88.6
					CHANNELS 3  Xrotation Yrotation Zrotation
					JOINT right_foot_ee
					{
						OFFSET	22.5	-16.5	-42.2
						CHANNELS 3  Xrotation Yrotation Zrotation
						End Site
						{
							OFFSET	1	0	0
						}
					}
				}
			}
		}
	}
}
MOTION
Frames: 6
Frame Time: 0.02
2973.25482989 679.585 -1893.68543946 -2.95572554607 18.1822670233 2.6307241467 1.19354 -0.0955858 -1.20191 1.19434 -0.0189172 -1.20556 1.19486 0.210202 -1.18724 1.1929 0.020075 -1.20554 -6.81892 6.64965 6.67926 -6.70421 7.49583 8.0008 -0.0 0.0 -0.0 5.09905 -11.2897 9.31302 3.65591 -17.5645 70.5622 1.01875 -26.7776 0.242497 65.9513 -2.33144 -7.62865 -3.30274 10.9968 -16.7426 -0.0 0.0 -0.0 3.37863 18.9596 -5.03807 -19.4454 -17.4187 -79.5548 1.09148 28.3987 -0.276182 -56.1455 4.80766 -4.9651 -1.4612 7.14652 13.0058 0.0 0.0 0.0 23.8128 -13.3847 6.02555 -22.6788 0.254211 3.44828 -9.78247 20.8014 1.49121 14.9347 -0.0 -0.0 -0.0 0.0 -0.0 29.3279 8.52111 0.0560772 -67.4114 3.05114 -9.28855 37.3703 -2.17436 4.62957 14.5935 -0.0 -0.0 0.0 0.0 0.0 
2969.24707832 679.585 -1889.97976147 -2.97378707999 19.2126932186 2.68706356514 1.19354 -0.0955858 -1.20191 1.19434 -0.0189172 -1.20556 1.19486 0.210202 -1.18724 1.1929 0.020075 -1.20554 -6.81892 6.64965 6.67926 -6.70421 7.49583 8.0008 -0.0 0.0 -0.0 5.09905 -11.2897 9.31302 3.65591 -17.5645 70.5622 1.01875 -26.7776 0.242497 65.9513 -2.33144 -7.62865 -3.30274 10.9968 -16.7426 -0.0 0.0 -0.0 3.37863 18.9596 -5.03807 -19.4454 -17.4187 -79.5548 1.09148 28.3987 -0.276182 -56.1455 4.80766 -4.9651 -1.4612 7.14652 13.0058 0.0 0.0 0.0 23.8128 -13.3847 6.02555 -22.6788 0.254211 3.44828 -9.78247 20.8014 1.49121 14.9347 -0.0 -0.0 -0.0 0.0 -0.0 29.3279 8.52111 0.0560772 -67.4114 3.05114 -9.28855 37.3703 -2.17436 4.62957 14.5935 -0.0 -0.0 0.0 0.0 0.0 
2964.75280596 679.585 -1885.66050662 -2.99587860284 20.3893934734 2.75227397544 1.19354 -0.0955858 -1.20191 1.19434 -0.0189172 -1.20556 1.19486 0.210202 -1.18724 1.1929 0.020075 -1.20554 -6.81892 6.64965 6.67926 -6.70421 7.49583 8.0008 -0.0 0.0 -0.0 5.09905 -11.2897 9.31302 3.65591 -17.5645 70.5622 1.01875 -26.7776 0.242497 65.9513 -2.33144 -7.62865 -3.30274 10.9968 -16.7426 -0.0 0.0 -0.0 3.37863 18.9596 -5.03807 -19.4454 -17.4187 -79.5548 1.09148 28.3987 -0.276182 -56.1455 4.80766 -4.9651 -1.4612 7.14652 13.0058 0.0 0.0 0.0 23.8128 -13.3847 6.02555 -22.6788 0.254211 3.44828 -9.78247 20.8014 1.49121 14.9347 -0.0 -0.0 -0.0 0.0 -0.0 29.3279 8.52111 0.0560772 -67.4114 3.05114 -9.28855 37.3703 -2.17436 4.62957 14.5935 -0.0 -0.0 0.0 0.0 0.0 
2904.7396209 689.603 -1907.02091376 -4.15426254352 26.8771042377 1.37473158656 1.66266 -0.126921 -0.869944 1.66308 -0.0713092 -0.876257 1.6642 0.0890931 -0.874628 1.66313 -0.0501507 -0.877722 -6.51982 5.26831 4.08115 -6.47754 6.78631 5.12136 -0.0 0.0 -0.0 7.39145 -8.40305 14.2709 2.11373 -18.9047 63.493 1.20992 -30.9355 0.334819 48.5694 -0.868307 -5.9602 -2.4904 8.77671 -12.5204 -0.0 0.0 -0.0 3.24896 19.4698 -4.7112 -27.5392 -28.3509 -86.0576 0.951218 25.2297 -0.212886 -63.275 5.69263 -5.19141 -1.83407 -1.96913 11.4276 0.0 0.0 0.0 19.7631 -11.6005 9.37378 -19.7272 0.298785 2.99761 -14.8052 22.3836 2.28345 19.3927 -0.0 -0.0 -0.0 0.0 -0.0 39.1703 4.70452 0.517455 -74.6996 3.97777 -9.92658 40.3678 -11.677 4.92342 18.7328 -0.0 -0.0 0.0 0.0 0.0 
2862.67002032 696.908 -1916.36120912 -5.27062843152 32.6872858 1.27166807247 1.86254 -0.199958 -0.126258 1.86253 -0.191519 -0.138726 1.863 -0.163719 -0.170647 1.86301 -0.188615 -0.142649 -7.35935 4.09095 2.48133 -7.34622 5.83372 3.32102 -0.0 0.0 -0.0 8.0247 -7.99546 15.6183 2.72128 -21.5401 60.8106 1.58871 -38.2 0.550172 42.2099 -0.469173 -5.25142 -2.02951 7.87529 -9.92456 -0.0 0.0 -0.0 2.75203 21.2069 -3.47168 -31.1154 -33.4541 -88.9252 0.932571 24.7951 -0.205001 -65.4623 5.96882 -5.2385 -1.96404 -6.14121 10.3261 0.0 0.0 0.0 14.6619 -13.0403 11.0145 -17.8682 0.314922 2.71285 -13.2083 23.0569 2.04014 20.9369 -0.0 -0.0 -0.0 0.0 -0.0 45.3072 4.71555 2.44372 -66.0353 2.88571 -9.15522 31.3366 -16.7623 4.10107 18.8986 -0.0 -0.0 0.0 0.0 0.0 
2857.82990078 696.908 -1910.07574015 -5.33955360031 33.8192634989 1.39735953705 1.86254 -0.199958 -0.126258 1.86253 -0.191519 -0.138726 1.863 -0.163719 -0.170647 1.86301 -0.188615 -0.142649 -7.35935 4.09095 2.48133 -7.34622 5.83372 3.32102 -0.0 0.0 -0.0 8.0247 -7.99546 15.6183 2.72128 -21.5401 60.8106 1.58871 -38.2 0.550172 42.2099 -0.469173 -5.25142 -2.02951 7.87529 -9.92456 -0.0 0.0 -0.0 2.75203 21.2069 -3.47168 -31.1154 -33.4541 -88.9252 0.932571 24.7951 -0.205001 -65.4623 5.96882 -5.2385 -1.96404 -6.14121 10.3261 0.0 0.0 0.0 14.6619 -13.0403 11.0145 -17.8682 0.314922 2.71285 -13.2083 23.0569 2.04014 20.9369 -0.0 -0.0 -0.0 0.0 -0.0 45.3072 4.71555 2.44372 -66.0353 2.88571 -9.15522 31.3366 -16.7623 4.10107 18.8986 -0.0 -0.0 0.0 0.0 0.0 
